<svg xmlns="http://www.w3.org/2000/svg" xmlns:xlink="http://www.w3.org/1999/xlink" version="1.1" x="0px" y="0px" viewBox="0 0 100 100" enable-background="new 0 0 100 100" xml:space="preserve"><path d="M87.513,18.329c-1.466-1.465-3.84-1.465-5.305,0L68.867,31.67C62.037,18.55,54.453,6.522,52.966,4.19  c-0.688-1.08-1.881-1.735-3.163-1.735c-1.281,0-2.476,0.655-3.164,1.735c-2.816,4.421-27.524,43.642-27.524,59.166  c0,5.219,1.324,10.127,3.632,14.436L10.77,89.768c-1.466,1.465-1.466,3.84,0,5.305c0.731,0.732,1.692,1.1,2.652,1.1  s1.92-0.367,2.652-1.1l71.438-71.439C88.978,22.169,88.978,19.793,87.513,18.329z M26.617,63.355  c0-9.918,14.646-36.024,23.186-50.045c3.881,6.372,9.02,15.239,13.475,23.949L28.371,72.166  C27.249,69.447,26.617,66.476,26.617,63.355z"></path><path d="M68.429,48.719c3.547,7.65,6.06,14.531,6.06,18.636c0,12.787-10.399,23.188-23.186,23.188  c-6.775,0-12.862-2.941-17.106-7.59l-5.304,5.303c5.607,6.006,13.565,9.789,22.41,9.789c16.923,0,30.688-13.766,30.688-30.689  c0-5.799-3.451-14.91-7.921-24.278L68.429,48.719z"></path></svg>